<?xml version="1.0" encoding="UTF-8"?><svg id="Warstwa_1" xmlns="http://www.w3.org/2000/svg" viewBox="0 0 450.4 448.9"><defs><style>.cls-1{stroke:#000;stroke-miterlimit:10;stroke-width:11px;}</style></defs><path class="cls-1" d="M89.31,443.4c-1.22,0-2.44-.34-3.51-1-1.95-1.21-3.14-3.35-3.14-5.64v-71.33C33.58,326.49,5.5,269.98,5.5,209.89c0-54.69,22.92-106.08,64.53-144.7C111.5,26.7,166.6,5.5,225.2,5.5s113.7,21.2,155.17,59.69c41.61,38.62,64.53,90.01,64.53,144.7s-22.92,106.07-64.53,144.7c-41.48,38.49-96.58,59.69-155.17,59.69-20.25,0-40.3-2.56-59.61-7.62l-73.35,36.06c-.93,.45-1.93,.68-2.93,.68ZM225.2,18.78C111.38,18.78,18.79,104.51,18.79,209.89c0,56.98,27.18,110.58,74.57,147.04,1.64,1.26,2.59,3.2,2.59,5.26v63.9l66.02-32.45c1.46-.72,3.12-.88,4.68-.45,18.92,5.18,38.63,7.81,58.55,7.81,113.82,0,206.41-85.73,206.41-191.11S339.02,18.78,225.2,18.78Zm23.68,261.15c-.58,0-1.15-.23-1.56-.65l-56.74-56.73-98.7,53.7c-.96,.53-2.17,.26-2.83-.62s-.57-2.11,.21-2.89l112.41-112.38c.87-.87,2.26-.87,3.13,0l54.97,54.95,98.31-60.72c.94-.58,2.16-.38,2.87,.47,.71,.85,.68,2.09-.07,2.91l-110.37,121.24c-.41,.45-.98,.71-1.58,.72-.02,0-.04,0-.06,0Z"/></svg>