<?xml version="1.0" encoding="UTF-8"?><svg id="Warstwa_6" xmlns="http://www.w3.org/2000/svg" viewBox="0 0 425.2 425.2"><defs><style>.cls-1{fill:#fff;stroke:#fff;stroke-miterlimit:10;stroke-width:2px;}</style></defs><path class="cls-1" d="M126.33,63.36h170.04c1.57,0,2.84-1.28,2.84-2.85v-8.54c0-1.57-1.27-2.85-2.84-2.85H126.33c-1.57,0-2.84,1.28-2.84,2.85v8.54c0,1.57,1.27,2.85,2.84,2.85"/><path class="cls-1" d="M376.5,393.02H48.71c-16.6,0-30.06-13.49-30.06-30.12V162.44H406.56v200.45c0,16.63-13.46,30.12-30.06,30.12Zm0-343.91h-31.79c-1.57,0-2.84,1.28-2.84,2.85v8.54c0,1.57,1.27,2.85,2.84,2.85h31.79c16.58,0,30.06,13.5,30.06,30.14v54.7H18.65v-54.7c0-16.64,13.48-30.14,30.06-30.14h29.29c1.56,0,2.84-1.28,2.84-2.85v-8.54c0-1.57-1.28-2.85-2.84-2.85h-29.29c-24.41,0-44.28,19.92-44.28,44.39V362.89c0,24.4,19.93,44.36,44.28,44.36H376.5c24.35,0,44.27-19.96,44.27-44.36V93.5c0-24.47-19.88-44.39-44.27-44.39"/><path class="cls-1" d="M102.16,98.03c7.05,0,12.79-5.73,12.79-12.83V34.3c0-7.09-5.75-12.82-12.79-12.82s-12.79,5.73-12.79,12.82v50.91c0,7.1,5.71,12.83,12.79,12.83"/><path class="cls-1" d="M320.54,94.52c7.05,0,12.79-5.75,12.79-12.82V30.76c0-7.06-5.75-12.82-12.79-12.82s-12.79,5.76-12.79,12.82v50.94c0,7.07,5.71,12.82,12.79,12.82"/></svg>