<?xml version="1.0" encoding="UTF-8"?><svg id="Warstwa_6" xmlns="http://www.w3.org/2000/svg" viewBox="0 0 425.2 425.2"><defs><style>.cls-1{fill:#fff;stroke:#fff;stroke-miterlimit:10;stroke-width:2px;}</style></defs><path class="cls-1" d="M392.71,372.75h0ZM80.28,25.96c-3.9,0-7.6,1.77-11.59,5.27-.46,.44-6.13,5.82-9.89,9.4l-3.44,3.26c-19.2,17.97-27.91,50.34-22.18,82.47,1.86,10.4,4.84,21.15,8.87,32,20.36,54.7,59.01,102.27,87.85,132.54,28.7,30.48,74.12,71.65,127.61,94.91,10.59,4.61,21.19,8.16,31.46,10.58,31.78,7.45,64.53,.47,83.49-17.77l4.27-4.05c3.6-3.42,8.38-7.94,9.14-8.68,11.71-12.03,5.78-22.1-17.81-46.14l-5.93-6.08c-15.02-15.6-40.18-41.69-61.43-39.17-5.74,.68-11.78,4.89-18.16,9.35-6.37,4.45-12.96,9.06-20.9,11.57-21.24,6.74-42.8,2.32-60.71-12.45-10.66-8.8-21.53-19.1-31.41-29.78-9.95-10.25-19.65-21.66-27.87-32.8-13.78-18.68-17.04-40.47-9.18-61.33,2.94-7.79,7.88-14.13,12.67-20.27s9.32-11.94,10.31-17.64c3.64-21.12-21.05-47.64-35.81-63.48l-5.77-6.25c-15.6-17.08-25.08-25.47-33.57-25.47Zm234.29,392.72c-10.65,0-20.89-1.3-30.02-3.43-11.41-2.67-23.09-6.6-34.75-11.67-56.5-24.57-104.04-67.59-133.94-99.34-30.07-31.56-70.46-81.34-91.94-139.12-4.44-11.92-7.75-23.83-9.79-35.36-5.46-30.57-.96-72.91,28.03-100.02l3.32-3.16c4.04-3.84,10.19-9.67,10.44-9.89,29.08-25.56,55.05,2.86,72.26,21.67l5.64,6.13c17.2,18.47,45.99,49.37,40.71,79.98-1.81,10.49-8.36,18.87-14.12,26.26-4.07,5.22-7.92,10.15-9.81,15.16-5.54,14.74-3.25,29.61,6.63,43.01,7.71,10.46,16.82,21.16,26.35,30.99,9.45,10.21,19.66,19.89,29.67,28.14,12.85,10.59,27.56,13.68,42.56,8.94,5.12-1.62,10.25-5.2,15.67-9,7.68-5.36,16.39-11.45,26.96-12.7,30.79-3.71,60.14,26.79,77.64,44.97l5.8,5.94c17.87,18.18,44.84,45.65,17.79,73.36h0c-.39,.38-5.65,5.38-9.61,9.12l-4.15,3.94c-19.96,19.2-46.7,26.09-71.3,26.09"/><path class="cls-1" d="M330.99,216.95c-5.08,0-9.35-3.97-9.65-9.11-1.55-26.08-12.28-50.88-30.21-69.81-17.95-18.94-42.12-30.99-68.06-33.93-5.31-.6-9.14-5.41-8.53-10.72,.6-5.31,5.41-9.12,10.7-8.53,30.47,3.45,58.86,17.61,79.92,39.85,21.08,22.24,33.68,51.36,35.5,81.99,.31,5.35-3.75,9.93-9.09,10.25-.2,.01-.39,.01-.59,.01"/><path class="cls-1" d="M403.41,227.91c-5.08,0-9.34-3.97-9.65-9.11-2.8-47.18-22.21-92.02-54.65-126.28-32.44-34.26-76.16-56.05-123.1-61.35-5.31-.61-9.14-5.41-8.53-10.72,.6-5.31,5.39-9.16,10.71-8.54,51.46,5.82,99.4,29.71,134.97,67.29,35.59,37.55,56.87,86.73,59.93,138.45,.31,5.35-3.75,9.93-9.09,10.25-.2,0-.39,.01-.59,.01"/></svg>